# xmcd
#
# Track frame offsets:
#	150
#	21080
#	42226
#	64721
#	75955
#	98985
#	119389
#	137643
#	161398
#	182368
#
# Disc length: 2693 seconds
#
# Revision: 0
# Processed by: cddbd v1.5.2PL0 Copyright (c) Steve Scherf et al.
# Submitted via: dBpowerAMP V4.0
#
DISCID=710a830a
DTITLE=Tran Thien Thanh 2 - Tinh Thu Cua Linh
DYEAR=1900
DGENRE=
TTITLE0=Tinh Thu Cua Linh
TTITLE1=Tinh Dau Tinh Cuoi
TTITLE2=Lien Khuc Khong Bao Gio Ngan Cach
TTITLE3=Cho Anh Xinh So Nha
TTITLE4=Khi Nguoi Yeu Toi Khoc
TTITLE5=7 ngay doi mong
TTITLE6=Tinh Co Nhu Khong
TTITLE7=Chieu Tren Pha Tam Giang
TTITLE8=Hoa Bien
TTITLE9=Goa Phu Ngay Tho
EXTD=
EXTT0=
EXTT1=
EXTT2=
EXTT3=
EXTT4=
EXTT5=
EXTT6=
EXTT7=
EXTT8=
EXTT9=
PLAYORDER=
